<svg id="Camada_1" data-name="Camada 1" xmlns="http://www.w3.org/2000/svg" viewBox="0 0 511.67 111.41"><defs><style>.cls-1,.cls-3{fill:#fff;}.cls-1,.cls-2{fill-rule:evenodd;}.cls-2{fill:#748fc9;}</style></defs><title>Prancheta 1</title><path class="cls-1" d="M.09,0H106.92V99a6.51,6.51,0,0,1-6.49,6.49H59.34c-2.7,0-4.55,1.95-5.72,5.8-1.11-3.31-2.74-5.81-6-5.8h-41A6.51,6.51,0,0,1,.09,99V0ZM105.52,1.38V99a5.22,5.22,0,0,1-5.2,5.2H59.27a6,6,0,0,0-5.64,4.15,6.54,6.54,0,0,0-5.74-4.15H6.68A5.21,5.21,0,0,1,1.48,99V1.38Z"/><path class="cls-1" d="M41.11,82.47V88c6.65,3.4,17.94,3.33,25.15,0V82.44l6.51-3c.31-.25.42-.64.21-1.24l-.21-.72v-5q0-.91-.86-.92H69.35c-1,0-1.27-.61-.49-1.58q1.92-4.72-2.6-9.69a1.88,1.88,0,0,1-1.12-1.81,4.51,4.51,0,0,0-1.32-3c0-1-.26-2.4-1-2.54l.07-.39-.27-.5a2.57,2.57,0,0,0-.11-1.49,11.86,11.86,0,0,0,2.66-2.21,3.88,3.88,0,0,0,.05,1.48,16.71,16.71,0,0,0,.58,1.93A5.29,5.29,0,0,1,66,55.68a4.87,4.87,0,0,0,.82,3.44c1.09,1.29,2.54,2.08,3.92,1.69-.57-1.72-.23-4,.2-5.85l.21-1.34-.07-4a4.93,4.93,0,0,1,.53-2l.59-1.82c5.71-22.2-18.54-31.56-29.55-20.08,2,.45,3.7,1,4.79,2.52.62.86.25,1.39-.56,1.14A18.1,18.1,0,0,0,44.74,29a6.69,6.69,0,0,0-1.35-.21h-.18l-.17,0-.16,0-.14,0-.13.05-.11.07-.09.09-.06.11,0,.12v.13l0,.14.07.15.16.4.1.3.08.3.07.3c0,.1,0,.2,0,.3s0,.2,0,.3,0,.2,0,.3,0,.2,0,.29,0,.2,0,.29,0,.24-.05.36l-.5.49-.13.17-.12.18-.1.2-.08.21,0,.15,0,.15,0,.16v.52l0,.19,0,.2,0,.2.06.22a2,2,0,0,1,.13.35.9.9,0,0,1,0,.15,1,1,0,0,1,0,.17,1.57,1.57,0,0,1-.08.26l-.12.15-.11.17-.09.16-.08.16-.07.16-.05.16,0,.16,0,.16,0,.16V39l0,.15,0,.3.13.74,0,.29,0,.15v.58l0,.14,0,.14,0,.14,0,.14-.3.56-.38.64-.45.7L39.52,45l0,.12a1.35,1.35,0,0,0,0,.15,1.3,1.3,0,0,0,0,.15,1.28,1.28,0,0,0,0,.15,1.24,1.24,0,0,0,0,.14l0,.13.07.12.08.1.09.08a7,7,0,0,1,.69.64l.16.21,0,0,0,0v.39c0,.22,0,.44,0,.66v.43l0,.08,0,.08,0,.08,0,.08,0,.07.05.07.06.06.07.06.08.05,0,0-.16.14-.07.09-.06.09,0,.09,0,.1,0,.1V50l0,.1,0,.11.07.16.1.17.1.14,0,.07,0,.09V51c0,.06,0,.12,0,.18s0,.13,0,.19,0,.27-.08.41l0,.13c-.06.2-.12.4-.19.6l0,.17c0,.06,0,.11,0,.17s0,.11,0,.17,0,.11,0,.16,0,.11,0,.16l.05.15.07.15.09.14.11.13.13.12.1.08.21.12.21.11.22.1.23.1.24.09.24.08.38.1.4.09.42.07.44.05.45,0,.85,0c.09.2.18.4.27.6a13.63,13.63,0,0,1,.48,1.48l0,.08h0a20.8,20.8,0,0,1,.44,2.27q.13.9-.45.94a19.57,19.57,0,0,0-6,3.05c-2.47,2-3.19,4.22-1.07,6.95.44.75.2,1.15-.73,1.13l-3.06-.05q-1.06,0-1,1L34.58,76a6.08,6.08,0,0,1-.31,2c-.31.7-.31,1.27.15,1.63l6.69,2.88Zm14-22.14a3.79,3.79,0,0,1,2.6,1.79l-.57-.63a2.73,2.73,0,0,0-1.46-.3l-.57-.86ZM62,54c.42-1.3.21-2-.37-2.21s-1.5.63-.83,1.19c.14-.32.16-.33.47-.46.49.19.45,1,.4,1.41-3.66.22-4.53-6.09-4.43-6.39-1.68,3.06.74,7.73,3.11,8.29.33-2.46,2.8-1.64,2.31-.38a.61.61,0,0,1-1.22,0c-.23.1-.25.2-.26.5,1.86,2.83,3-1.73.82-1.92Zm-3.6-9.26a.73.73,0,1,1-.73.73.73.73,0,0,1,.73-.73Zm0-.82a1.55,1.55,0,1,1-1.55,1.55,1.56,1.56,0,0,1,1.55-1.55Zm.94,3.54a29.4,29.4,0,0,1,.4,2.92l-1.06.39q-.29-1.62-.72-3.15a2.2,2.2,0,0,0,1.39-.17Zm-16-17.72c5.7.08,12.42,6.17,14.9,13.51a2.27,2.27,0,0,0-1.48.77,26.9,26.9,0,0,0-4.91-7.43l-.13.41a3.85,3.85,0,0,0,1.07,1.34,5,5,0,0,1,1,1.22,3.38,3.38,0,0,1-.8-.14l0,.43a4.75,4.75,0,0,1-1.06-1A1.51,1.51,0,0,0,52.68,40c.58.41,1.15.77,1.73,1.1a1.52,1.52,0,0,1,.44.56c-.66.18-.59.55.12,1.07l.18.1c-.32.11-.5.89-.3,1.3a5.26,5.26,0,0,1,.52,1.11l.26-.64.52-.15.17.38a2.06,2.06,0,0,0,.35,2,5.93,5.93,0,0,0-.76,3A4.37,4.37,0,0,1,55,46.41q0-.33-.41-.09c-.34,0-.5-.27-.52-.71-.07-.26-.48-.06-.37.2a1.51,1.51,0,0,0,.14.21,1.71,1.71,0,0,1,.37.56V47h-.39a3.73,3.73,0,0,0-.6-.79,1,1,0,0,0-.18-.2,5.12,5.12,0,0,1-.59-.51c-.15-.16-.38-.3-.53-.44l-.07-.14a1.39,1.39,0,0,0-.61-1.4.59.59,0,0,1-.19-.13l-.14-.14a.84.84,0,0,1,1.22-.11,2.48,2.48,0,0,1,.65,1.41c.47-.58.3-1.14-.27-1.63a3.34,3.34,0,0,1-1.2-.26c-.31-.24-.09-.77.39-.57.65.3.4-.56-.22-.56a2.36,2.36,0,0,0-.7.11,1.18,1.18,0,0,1-1.12-.35c.37-.27.44-.53.08-.78-.84-.6-.43-1.32.37-1.22l.63.37c.33.2.53-.11.19-.4a5.17,5.17,0,0,0-.89-.54l-.39-.54a1.3,1.3,0,0,1-1.06.45c-.67-.12-.54-.75.22-.7.27,0,.21-.31,0-.25-.4.09-.54.26-.77.3a.78.78,0,0,1-.89-.4,2.4,2.4,0,0,1-.18-1l.53-.29a2.73,2.73,0,0,0-1.68-.22h-.65a1.38,1.38,0,0,1,1.31-.93,1.56,1.56,0,0,0-1.73.16,1.42,1.42,0,0,0-1.56.61h-.3c-.54-1.54,0-2.32,1.22-2.52-.21.64-.06.93.62.71l.95-.21a.87.87,0,0,1,.42.34,1.57,1.57,0,0,0,.82.29l1.47.18.31.46.27.18.38,0c0,.67.45,1,1.15,1.08a1,1,0,0,0,.82,1.38l-.21-.81,0-1.08a12,12,0,0,0-7.43-3.39,8.88,8.88,0,0,0-.35-2.76ZM46.5,62.07c0-.11.15-.13.24-.11s.15.68.39.56c1.15-2.15-.42-5.24-1-7.51a9.68,9.68,0,0,0,6-2.81.84.84,0,0,1,.35.79,19.44,19.44,0,0,0-.5,3.24c.1,1.81,2.25,4.31,2,5.53h0c-2.47,8.12-17.19,7.1-7.53.3Zm1.41-34.91a4.33,4.33,0,0,1,.68,2.31l1.47-.42,1.44-.28,1.4-.14h1.35l1.3.12,1.25.24,1.19.34,1.13.45,1.06.54,1,.62.93.7.85.77.78.83.7.89.62.93.54,1,.45,1,.37,1,.27,1,.18,1.05L67,41.21l0,1-.12,1-.23,1,0,.07c6.14-10.21-5.35-22.25-18.65-17.21ZM59.19,43.29a2.26,2.26,0,0,1,1,3.51v0l.2,1.12.16,1.14.1.93c11.95-5.11,3.31-24.8-11.92-19.78l.54.28.71.41.7.46.69.5.67.54.66.57.64.61.63.65.61.69.59.72.57.76.55.79.52.82.5.86.47.89.44.92.41.95.38,1,.22.65ZM44.64,25.2C56.75,16,76.57,26.83,71.14,45.66c-.42,1.31-1.27,2.08-1,4,.72,2.77-2.12,6.84-.43,10.49a3.81,3.81,0,0,1-2.75-4.88,5.46,5.46,0,0,0-.28-3.79c-.43-1.56-1.28-2.5-.3-4A2.31,2.31,0,0,1,68,47.31h0l.24.13.15-.27L68.15,47h0c-.47-.26-.65-.95-.78-1.44l0,0A2.32,2.32,0,0,1,69,45.22h0l.26.1.11-.29-.26-.1h0c-.5-.19-.76-.85-1-1.32l0-.05A2.31,2.31,0,0,1,69.73,43h0l.27.07.07-.3-.27-.07h0c-.52-.13-.87-.76-1.13-1.2v0c.39-.33.94-.8,1.47-.75h0l.28,0,0-.3-.28,0h0c-.54-.05-1-.62-1.29-1v0c.34-.39.8-.94,1.34-1h0l.28,0,0-.31-.28,0h0c-.54,0-1.05-.46-1.43-.81v-.06c.28-.43.65-1,1.18-1.16h0l.27-.06-.06-.3-.27.06h0c-.53.11-1.12-.31-1.54-.59v0c.21-.47.48-1.14,1-1.33h0l.26-.1-.11-.29-.26.1h0a2.34,2.34,0,0,1-1.63-.35h0c.13-.5.29-1.21.76-1.48h0l.24-.14-.15-.27-.24.14h0a2.33,2.33,0,0,1-1.66-.08h0a2.35,2.35,0,0,1,.53-1.58h0l.22-.17-.19-.24-.22.17h0a2.34,2.34,0,0,1-1.66.17A2.35,2.35,0,0,1,65.49,28h0l.19-.21-.23-.21-.19.21h0a2.32,2.32,0,0,1-1.6.43h0a2.34,2.34,0,0,1,0-1.66h0l.15-.23-.25-.17-.15.23h0c-.3.45-1,.56-1.52.66h0a2.35,2.35,0,0,1-.22-1.65h0l.12-.25L61.5,25l-.12.25h0c-.23.49-.92.71-1.4.88h0a2.35,2.35,0,0,1-.46-1.6h0l.08-.27-.29-.09-.08.27h0c-.16.52-.81.84-1.26,1.08h0c-.31-.41-.76-1-.68-1.52h0l0-.28-.3,0,0,.28h0c-.08.54-.69.94-1.11,1.25h0c-.36-.37-.89-.88-.88-1.42h0v-.28h-.31v.28h0c0,.54-.55,1-.93,1.38-.4-.32-1-.76-1-1.3h0l0-.28-.3,0,0,.28h0c.06.54-.43,1.08-.75,1.48h0c-.44-.27-1.07-.64-1.19-1.18h0l-.06-.27-.3.07.06.27h0c.12.53-.3,1.12-.58,1.55-.46-.23-1.12-.53-1.3-1h0l-.09-.26-.29.1.09.26h0a2.31,2.31,0,0,1-.41,1.6l-.06-.09h0a5.7,5.7,0,0,0-2.84-1.18Zm8.52,22.3L53,47.22h0l-.06-.11-.14-.19,0-.07h0l-.08-.11-.17-.16-.21-.16-.2-.13a2,2,0,0,1-.31-.21c-.21-.17-.42-.34-.62-.52L51,45.38l-.17-.2,0,0-.07-.07L50.61,45l-.15-.26-.12-.26-.07-.23-.07-.42c0-.26-.07-.53-.11-.79v-.09l-.2-.44-.12-.17-.12-.16v0h0l-.18-.23-.32-.38L49,41.46,49,41.32a6.08,6.08,0,0,1-.21-.65c-.06-.25-.12-.5-.17-.74a1,1,0,0,1,0-.16l-.11-.21-.18-.27L48,39l0,0,0,0-.12-.1-.27-.17c-.22-.12-.43-.24-.66-.34l-.19-.11-.51-.31-.14-.11,0,0,0,0-.23-.19-.18-.13-.06,0,0-.06,0-.05-.06-.05-.08-.06-.08-.06L45,37l-.33-.14-.21-.07-.18-.05-.31,0h-.44l-.16,0-.14,0-.13,0-.12.06-.12.08-.11.08-.1.1-.11.12c-.07.09-.14.19-.2.29l-.14.26-.06.09L42,38.3c0,.13,0,.25,0,.38s0,.11,0,.16l.07.55c0,.31.11.61.15.92a5.25,5.25,0,0,1,.06.56v.2h0a4.43,4.43,0,0,1-.56,1.72l-1.59,2.4c-.11.18-.16.25,0,.46s.49.43.67.62l.22.26,0,.06.1.18a2.72,2.72,0,0,1,.17,1c-.11.73-.52,1.21,1.92,1.38.26,0,.21.54,0,.54a4.89,4.89,0,0,0-1.69,0l0,0,0,0,0,0,0,0,0,0,0,0V50l.09.14a3.76,3.76,0,0,1,.25.46c0,.13,0,.26.05.38s0,.18,0,.26l0,.22c0,.11,0,.21-.06.31s-.12.43-.18.64l0,.16c0,.07,0,.15,0,.22v.26l0,.06,0,.06,0,.06,0,.06,0,.06.06.06.07.06.08.06.09.06.11.06.12.06.49.18.51.14a9.35,9.35,0,0,0,6-.51c.27-.12.54-.24.8-.37l.46-.28.1,0v0l.09-.08.16-.12.2-.15,0,0,0,0,.09-.06a2.3,2.3,0,0,0,.38-.43l.15-.23.23-.38.05-.09.12,0h.29l0-.18a2.75,2.75,0,0,0,0-.33c0-.15,0-.31-.05-.46s0-.53,0-.79c0-.05,0-.11,0-.16a2.13,2.13,0,0,1,0-.25c0-.05,0-.1,0-.16s0-.13.06-.2l.06-.14.08-.12,0,0c-.12.55.11,1.21,1.05,1.7a6.72,6.72,0,0,0,0,2,6,6,0,0,1-.32,3.82,5.84,5.84,0,0,0,.21,3.4q.35-.6.8-.37a7.68,7.68,0,0,0,.09,1.16,4.51,4.51,0,0,0,2.24,4.3c.15.06.22.21.11.43a6.2,6.2,0,0,1-1.14,1.28,2.73,2.73,0,0,0-.91,1.87,2.14,2.14,0,0,0,1.18-1,1.63,1.63,0,0,0,1.33-2.16,12.86,12.86,0,0,1-1.25-2.29q-.19-.74.33-.81a13.26,13.26,0,0,0,2.39,3.87,6.66,6.66,0,0,1-1.81,2.23,5,5,0,0,0-2,2.88L53.9,71q.49,1,3.13.1a2.51,2.51,0,0,1,1-1.95,2.84,2.84,0,0,0,1.28-1.82l.12.08-.47,1.22a4.09,4.09,0,0,0-1,1.5c-1.11,1.78,2.49,1.55,3.21.59a3,3,0,0,1-1.3-3.24,2.17,2.17,0,0,0,.31-1.95,29.12,29.12,0,0,0-1.93-2.76c.6.49,1.59.92,1.69,1.88a2,2,0,0,0,1,1.13c-1.13.89-.36,4.16,1,4.41q.21-.46-.41-1a.82.82,0,0,1,.94.2c-.26,2.61,3.82,3.84,2.43-.12.69.32.93-.06.46-.48l-1.49-1c-.7-.37-.67-1.25,0-2.57l.16,0q.19,2.3,1.45,2.79c-.22-1,.72-1.21.89-.24l-.14,2.08c-.11,1.71,1.1,1.79,1,0l-.12-1.47c.4-.58.72-1,.86-.88l-.33,1.22c-.59,1.63.79,1.58,1-.86a7.06,7.06,0,0,0-1.19-4.48,2,2,0,0,0,.3,1.3c.4,1.31-.88,1.56-1.06.18l.05-1a2.57,2.57,0,0,1-.26-1.54,3.07,3.07,0,0,1-.68-1.57c0-.4-.31-.85-1-1.19-.55-1.32-1.24-1.72-2-1.51q-.48.07-.13.43a5.69,5.69,0,0,1,2.89,3.83l.16.47c-.34.18-.34.5-.18.88a1.23,1.23,0,0,1-.59.17.83.83,0,0,1-.13-.86,2.06,2.06,0,0,0-1.2-2.22l-.09.21q.18.3,0,.41A2.05,2.05,0,0,1,64,62c.1.15.07.25,0,.32a5.36,5.36,0,0,1,.56,1.45h0a2,2,0,0,1,.64.84,1.54,1.54,0,0,0,.9,1.06,1.61,1.61,0,0,1,.57,1.24c-1.15,0-2.07-1.44-2.88-3A1.79,1.79,0,0,0,62.64,63c-.76-.63-.17-1.74.72-.73.39-1.24-.7-2.23-2.81-3.05.07.27.29.51.75.71l-.05.2a4.94,4.94,0,0,1-2.71-1.43c-1.69-3,2.27-1.32,3.25.54.31-1.51-1.19-2.91-2.9-3.29l-1.82-1.58-.1,1-.46,0a3.27,3.27,0,0,1,.69,2.51q-.15.5-.35.08l-.45-.63.05.8c-.65-.06-.83-.88-.63-1.92a2.58,2.58,0,0,1,.2-3.15l.72.68c-.47-2-1-3.66-2.29-4.33.21-2.06-.65-2.38-1.29-2ZM44,43.08h-.1a0,0,0,0,0,0,0c-.69-.43-.45-.77-.54-1.45a1.41,1.41,0,0,0-.29-.42,1.33,1.33,0,0,1,0-1.16c0-.42-.75-.27-.62-.7.57-.57,1.81-.41,2.56-.21l.55.28a3.78,3.78,0,0,1,1.33,1.73.25.25,0,0,1,0,.11h-.1a12.14,12.14,0,0,1-1.26-.85c-.39-.13-.42-.08-.36.31.23.53,1.19.86,1.19,1.55l-.26.1c-.83-.06-1.33.57-2.08.67Zm-2.28,3.09c-.36-.18-.61-.35-.64-.57.16-.51,1.78.75.64.57Zm4.17,15.6c-5.35,1-10.71,6.7-2.81,9.31a16.58,16.58,0,0,0,11.53-1.23,5.34,5.34,0,0,1,.86-1.79h0l-.21.1-.89.34c0-.34.08-.67.13-1,0-.08,0-.16,0-.24a6.28,6.28,0,0,1,.35-1H55l.16-.25,0-.13a7.87,7.87,0,0,0,.7-.64l.08-.11L56,65l.1-.08-.34-.19-.18-.14-.45-.67a10.46,10.46,0,0,1-9.21,5c-5.83-.12-5.12-4.85,0-7.12Zm-7,15.9c-1,0-2,0-3-.06-.06-1.68,0-3.3,0-4.93l8.11,0,.18,0c2.12,0,4.32.08,6.48.08a8.33,8.33,0,0,1,2.44,0l2.56,0c.46,0,1-.1,1.47,0,1.44,0,1.92,0,3.08,0a1.19,1.19,0,0,0,.4,0c1.73,0,3.53.08,5.3-.06a6.86,6.86,0,0,0,1.28,0c2.6,0,2.6,0,4.16,0,0,1.61,0,3.23,0,4.85-4.11.08-8.22.07-12.28,0-3.38.1-6.75.14-10.08.09l-.5,0c-5.43.09-5.43.09-9.6.11Zm-2.61,1.18H71L65.8,81H41.43l-5.18-2.12ZM65,85.67V82.24H42.39v5a21.53,21.53,0,0,0,2.12.78V85.08a1,1,0,0,1,1-1.08h0a1,1,0,0,1,1,1.08v3.44c.62.12,1.24.26,1.87.34V85.29A1.24,1.24,0,0,1,49.54,84h0a1.24,1.24,0,0,1,1.18,1.29v3.85q.77.06,1.55.08V85.29A1.34,1.34,0,0,1,53.65,84h0A1.34,1.34,0,0,1,55,85.29v3.9c.53,0,1.06-.06,1.58-.1V85.29A1.24,1.24,0,0,1,57.8,84h0A1.24,1.24,0,0,1,59,85.29v3.49c.61-.1,1.22-.22,1.83-.35V85.08a1,1,0,0,1,1-1.08h0a1,1,0,0,1,1,1.08v2.82c.73-.23,1.46-.5,2.19-.78V85.67Z"/><path class="cls-2" d="M49.55,34.54Z"/><path class="cls-2" d="M52.26,32l0,0h.06l0,0Z"/><path class="cls-2" d="M54.25,36.37l0,0,.08.13-.1-.14Z"/><path class="cls-1" d="M60.76,9.38l-3-.4L57,5.4a44,44,0,0,0-7.13,0L49.26,9l-3,.4L44.59,6.1A43.22,43.22,0,0,0,37.73,8l.3,3.61-2.8,1.18L32.76,10a43.23,43.23,0,0,0-6.14,3.58L27.88,17l-2.42,1.88-3-2a48.66,48.66,0,0,0-5,5l2.09,3-1.86,2.4-3.49-1.17a49.8,49.8,0,0,0-3.54,6.18l2.78,2.34-1.17,2.82-3.66-.23a46.7,46.7,0,0,0-1.85,6.83L10,45.62l-.41,3L6,49.4a47.88,47.88,0,0,0,0,7.1l3.59.64.4,3-3.3,1.65a50.74,50.74,0,0,0,1.86,6.86l3.64-.33,1.18,2.82-2.81,2.47a66.81,66.81,0,0,0,3.63,6.11l3.43-1.22,1.84,2.41-2,3.07a52.05,52.05,0,0,0,5,5l3-2.08,2.42,1.88-1.16,3.47a50.83,50.83,0,0,0,6.15,3.55l2.35-2.78L38,94.23l-.2,3.65a44.72,44.72,0,0,0,6.85,1.84l1.55-3.3,3,.4L50,100.4a43.56,43.56,0,0,0,7.1,0l.65-3.58,3-.41,1.64,3.28a38.14,38.14,0,0,0,6.85-1.84L69,94.2l2.81-1.15,2.46,2.74a47.09,47.09,0,0,0,6.12-3.57l-1.22-3.44,2.39-1.85,3.06,2a48.78,48.78,0,0,0,5-5.05l-2.08-3,1.85-2.39,3.48,1.17a60.55,60.55,0,0,0,3.56-6.17l-2.79-2.35,1.18-2.81,3.67.22a51.64,51.64,0,0,0,1.83-6.86L97,60.17l.41-3.05,3.57-.73a43.38,43.38,0,0,0,0-7.09l-3.59-.63-.39-3L100.31,44a45.24,45.24,0,0,0-1.89-6.88l-3.61.35L93.7,34.64l2.68-2.44A47,47,0,0,0,92.78,26l-3.39,1.26-1.87-2.44,2-3.05a52.28,52.28,0,0,0-5-5l-3,2.1L79.1,17l1.16-3.48A48.52,48.52,0,0,0,74.13,10l-2.33,2.77L69,11.59l.22-3.66A40.49,40.49,0,0,0,62.3,6.08l-1.54,3.3Zm-19,88.37q1.1.29,2.21.52L45.48,95l4.85.64.73,3.53a42.93,42.93,0,0,0,5,0l.63-3.52L61.51,95l1.62,3.24A37.54,37.54,0,0,0,67.92,97l-.3-3.59,4.51-1.84,2.41,2.69a47,47,0,0,0,4.29-2.5l-1.2-3.37,3.85-3,3,2A48.67,48.67,0,0,0,88,83.81l-2-2.94,3-3.85,3.4,1.15c.89-1.4,1.72-2.85,2.49-4.32l-2.73-2.3L94,67l3.6.21q.76-2.37,1.28-4.8l-3.23-1.52.65-4.88,3.51-.72a42.73,42.73,0,0,0,0-4.95l-3.54-.62-.62-4.84,3.22-1.64a45,45,0,0,0-1.31-4.82L94,38.81l-1.8-4.52,2.62-2.39a47.6,47.6,0,0,0-2.52-4.33L89,28.82,86,24.9l2-3c-1.12-1.23-2.29-2.41-3.52-3.52l-2.92,2.05-3.9-3,1.14-3.42a47.68,47.68,0,0,0-4.28-2.48l-2.29,2.71-4.55-1.86.22-3.62A40.2,40.2,0,0,0,63,7.52l-1.52,3.25-4.83-.65L56,6.61a43,43,0,0,0-5,0l-.62,3.55-4.87.64-1.6-3.25a42.34,42.34,0,0,0-4.8,1.31l.29,3.55L34.88,14.3l-2.42-2.7a42.83,42.83,0,0,0-4.29,2.51l1.23,3.34-3.88,3-3-2A48.39,48.39,0,0,0,19,22l2,2.94-3,3.86-3.42-1.15A49.56,49.56,0,0,0,12.17,32l2.73,2.3L13,38.79l-3.6-.22a45.93,45.93,0,0,0-1.29,4.77l3.25,1.54-.65,4.84-3.53.74a47.67,47.67,0,0,0,0,5l3.53.63.64,4.85L8.14,62.52q.53,2.43,1.3,4.8L13,67l1.89,4.53-2.73,2.4q1.19,2.19,2.55,4.28L18.07,77,21,80.88l-2,3q1.67,1.84,3.52,3.51l2.93-2,3.87,3-1.13,3.4c1.39.9,2.83,1.72,4.3,2.48l2.3-2.72,4.51,1.88L39.16,97q1.28.43,2.58.77Z"/><path class="cls-1" d="M53.56,15.18A37.72,37.72,0,1,1,15.81,52.93,37.74,37.74,0,0,1,53.56,15.18Zm0,1.28,1.87,0,1.85.14,1.82.23,1.79.32,1.76.41,1.72.49,1.69.57,1.65.65,1.61.73,1.57.81,1.52.88,1.47,1,1.43,1,1.37,1.08L78,26l1.26,1.21,1.2,1.27,1.14,1.32,1.08,1.38,1,1.43L84.66,34l.88,1.53.8,1.57.73,1.61.65,1.65.57,1.69.49,1.73.41,1.76.32,1.79.23,1.82.14,1.85,0,1.87,0,1.87-.14,1.85-.23,1.82-.32,1.79L88.77,62l-.49,1.73-.57,1.69-.65,1.65-.73,1.61-.8,1.57-.88,1.52-.95,1.48-1,1.43-1.08,1.38L80.47,77.4l-1.2,1.27L78,79.87,76.69,81,75.31,82.1l-1.43,1-1.48.95-1.52.88-1.57.81-1.61.73-1.65.65-1.69.57-1.72.49-1.76.41-1.79.32-1.82.23-1.85.14-1.87,0-1.87,0-1.85-.14L48,88.93l-1.79-.32-1.76-.41-1.73-.49-1.69-.57-1.65-.65-1.61-.73-1.57-.81-1.53-.88-1.48-.95-1.43-1L30.39,81l-1.33-1.15L27.8,78.67,26.59,77.4l-1.15-1.32L24.35,74.7l-1-1.43-1-1.48-.88-1.53L20.7,68.7,20,67.09l-.65-1.65-.57-1.69L18.24,62l-.41-1.76-.32-1.79-.23-1.82-.14-1.85,0-1.87,0-1.87.14-1.85.23-1.82.32-1.79.41-1.76.49-1.73.57-1.69L20,38.77l.73-1.61.81-1.57.88-1.53,1-1.48,1-1.43,1.09-1.38,1.15-1.33,1.21-1.27L29.07,26l1.33-1.15,1.38-1.09,1.43-1,1.48-1,1.53-.88,1.57-.81,1.61-.73,1.65-.65,1.69-.57,1.73-.49,1.76-.41L48,16.88l1.82-.23,1.85-.14,1.87,0Z"/><path class="cls-1" d="M390.88,68.27V5.19h30.19q9.71,0,15.13,4.54t5.43,12.65A14,14,0,0,1,439.07,31a11.91,11.91,0,0,1-7.26,4.47q6.42,1.32,9.56,5t3.15,10q0,8.85-6,13.34T421,68.27Zm21.28-25.68V52.66H416a9,9,0,0,0,5.24-1.31A4.32,4.32,0,0,0,423,47.62a4.27,4.27,0,0,0-1.82-3.74A9,9,0,0,0,416,42.59Zm0-22.4V29h3a6.66,6.66,0,0,0,4.21-1.15,3.93,3.93,0,0,0,1.44-3.28,3.92,3.92,0,0,0-1.44-3.28,6.76,6.76,0,0,0-4.21-1.12Z"/><path class="cls-1" d="M441.34,68.27,463.82,5.19h25.25l22.06,63.08H486.75l-2-7.93h-17.1l-1.94,7.93Zm30.08-22.93h9.43l-1.93-7.15q-1.43-5.43-1.94-8.37a43.16,43.16,0,0,1-.65-5.5h-.38a46,46,0,0,1-.65,5.5q-.53,2.93-1.94,8.37l-1.94,7.15Z"/><polygon class="cls-1" points="379.25 30.69 360.39 30.69 360.39 42.71 379.25 42.71 379.25 30.69 379.25 30.69"/><polygon class="cls-1" points="240.35 68.37 240.35 5.12 282.65 5.12 282.65 22.27 262.65 22.27 262.65 28.36 280.79 28.36 280.79 44.57 262.65 44.57 262.65 51.22 283.16 51.22 283.16 68.37 240.35 68.37 240.35 68.37"/><path class="cls-1" d="M168.1,30.22a22.82,22.82,0,0,0-6.36-4.45,16.2,16.2,0,0,0-6.83-1.47,12,12,0,0,0-9,3.44,12.46,12.46,0,0,0-3.39,9.14,12.15,12.15,0,0,0,3.24,8.89,11.53,11.53,0,0,0,8.69,3.33,17.45,17.45,0,0,0,6.67-1.4,34,34,0,0,0,7.42-4.47L167.84,67a42,42,0,0,1-7.43,2.27A38,38,0,0,1,144.08,69a31.37,31.37,0,0,1-7.74-2.95,33.6,33.6,0,0,1-12.67-12.22,33,33,0,0,1-4.31-17,34.65,34.65,0,0,1,2.45-13.14A31.74,31.74,0,0,1,139.82,6a36.77,36.77,0,0,1,13.42-2.4,36.25,36.25,0,0,1,7.58.8,35.14,35.14,0,0,1,7.28,2.4V30.22Z"/><path class="cls-1" d="M288.37,68.37,310.92,5.12h25.32l22.12,63.25H333.91l-2-7.95H314.72l-1.95,7.95Zm30.16-23H328L326,38.21q-1.44-5.44-1.95-8.39a43.3,43.3,0,0,1-.65-5.52h-.38a46.09,46.09,0,0,1-.65,5.52q-.53,2.94-1.95,8.39l-1.95,7.17Z"/><path class="cls-1" d="M177,68.37V5.12h28.61q12.43,0,19,5.49t6.56,15.81a17.9,17.9,0,0,1-3.3,11.1,12.79,12.79,0,0,1-8.92,5.1l16.88,25.75H210.38L199.32,47.5V68.37Zm22.3-47V33.76h3.54a7.19,7.19,0,0,0,5-1.58,5.76,5.76,0,0,0,1.75-4.51A6,6,0,0,0,207.84,23a7.07,7.07,0,0,0-5-1.62Z"/><path class="cls-3" d="M157.38,90.09a7.48,7.48,0,0,1-2.48-.4,5.28,5.28,0,0,1-2-1.18,5.35,5.35,0,0,1-1.27-2,7.61,7.61,0,0,1-.45-2.71,7.52,7.52,0,0,1,.43-2.6,5.59,5.59,0,0,1,1.25-2A5.31,5.31,0,0,1,154.85,78a7.11,7.11,0,0,1,2.54-.44,10.3,10.3,0,0,1,1.37.08,9.9,9.9,0,0,1,1.13.22,8,8,0,0,1,1,.35l.77.35v2.92h-.36l-.57-.46a7.46,7.46,0,0,0-.78-.53,5.48,5.48,0,0,0-1-.44,3.37,3.37,0,0,0-1.11-.18,3.73,3.73,0,0,0-1.25.2,3.07,3.07,0,0,0-1.09.69,3.36,3.36,0,0,0-.77,1.22,5.07,5.07,0,0,0-.3,1.85,4.92,4.92,0,0,0,.32,1.9,3.34,3.34,0,0,0,.81,1.2,2.93,2.93,0,0,0,1.1.64,4,4,0,0,0,1.2.19A3.8,3.8,0,0,0,159,87.6a4.36,4.36,0,0,0,1-.46,7,7,0,0,0,.74-.5c.23-.18.41-.33.56-.46h.32v2.88l-.86.38a6.94,6.94,0,0,1-.87.31,10.8,10.8,0,0,1-1.11.26,9,9,0,0,1-1.43.09Zm15.68-4.78a4.73,4.73,0,0,1-1.31,3.53,5.86,5.86,0,0,1-7.34,0,5.43,5.43,0,0,1,0-7.08,5.86,5.86,0,0,1,7.34,0,4.77,4.77,0,0,1,1.3,3.54Zm-3.59,2.21a2.3,2.3,0,0,0,.43-.84,5.1,5.1,0,0,0,.14-1.36,5.29,5.29,0,0,0-.15-1.34,2.35,2.35,0,0,0-.41-.87,1.4,1.4,0,0,0-.62-.47,2.15,2.15,0,0,0-.78-.14,2.23,2.23,0,0,0-.75.11,1.49,1.49,0,0,0-.63.45,2.3,2.3,0,0,0-.43.87,5.14,5.14,0,0,0-.16,1.38,5.38,5.38,0,0,0,.14,1.29,2.28,2.28,0,0,0,.41.88,1.51,1.51,0,0,0,.62.46,2.13,2.13,0,0,0,.82.15,2.18,2.18,0,0,0,.76-.13,1.38,1.38,0,0,0,.61-.45Zm14.81,2.33h-2.93V85.34c0-.37,0-.73-.06-1.1a2.26,2.26,0,0,0-.2-.8,1,1,0,0,0-.47-.44,2.22,2.22,0,0,0-.87-.14,2.57,2.57,0,0,0-.8.13,4.31,4.31,0,0,0-.89.41v6.44h-2.92V80.76h2.92v1a7.44,7.44,0,0,1,1.49-.93,3.83,3.83,0,0,1,1.59-.32,3.05,3.05,0,0,1,2.3.86,3.54,3.54,0,0,1,.83,2.56v5.92ZM194.86,87a2.63,2.63,0,0,1-1.26,2.27,6,6,0,0,1-3.46.86,9.93,9.93,0,0,1-2.2-.23,8.29,8.29,0,0,1-1.59-.5V87h.27l.51.34a5.43,5.43,0,0,0,.82.39,6.59,6.59,0,0,0,1,.32,5.3,5.3,0,0,0,1.23.14,3.21,3.21,0,0,0,1.27-.19.61.61,0,0,0,.41-.56.52.52,0,0,0-.24-.48,3.14,3.14,0,0,0-.92-.29c-.22,0-.51-.1-.88-.16a9.93,9.93,0,0,1-1-.21,3.57,3.57,0,0,1-1.84-1,2.48,2.48,0,0,1-.6-1.7,2.59,2.59,0,0,1,1.24-2.18,5.82,5.82,0,0,1,3.4-.87,9,9,0,0,1,2,.21,7.87,7.87,0,0,1,1.46.44v2.3h-.25a5.92,5.92,0,0,0-1.48-.73,5.28,5.28,0,0,0-1.68-.28,3.19,3.19,0,0,0-1.19.2c-.32.13-.48.31-.48.55a.59.59,0,0,0,.22.49,3,3,0,0,0,1,.34l1,.17c.34.05.69.13,1,.21a3.25,3.25,0,0,1,1.7.94,2.39,2.39,0,0,1,.55,1.61Zm10.89-1.12h-6.67a2.1,2.1,0,0,0,.81,1.64,3.63,3.63,0,0,0,2.21.57,5,5,0,0,0,1.79-.33,5.75,5.75,0,0,0,1.37-.71h.32v2.34a10.82,10.82,0,0,1-1.86.57,9.71,9.71,0,0,1-1.93.18,6.35,6.35,0,0,1-4.19-1.23,4.34,4.34,0,0,1-1.46-3.51,4.7,4.7,0,0,1,1.38-3.57,5.27,5.27,0,0,1,3.79-1.32,4.52,4.52,0,0,1,3.34,1.12,4.38,4.38,0,0,1,1.12,3.23v1Zm-2.9-1.71a2,2,0,0,0-.45-1.38,1.73,1.73,0,0,0-1.33-.46,2.13,2.13,0,0,0-1.38.44,1.86,1.86,0,0,0-.61,1.4Zm7.87,5.71H207.8V77.26h2.92v12.6Zm11.89,0h-2.93V85.34c0-.37,0-.73-.06-1.1a2.26,2.26,0,0,0-.2-.8,1,1,0,0,0-.47-.44,2.22,2.22,0,0,0-.87-.14,2.57,2.57,0,0,0-.8.13,4.3,4.3,0,0,0-.89.41v6.44h-2.92V77.26h2.92v4.51a7.44,7.44,0,0,1,1.49-.93,3.83,3.83,0,0,1,1.59-.32,3.05,3.05,0,0,1,2.3.86,3.54,3.54,0,0,1,.83,2.56v5.92Zm12-4.54a4.73,4.73,0,0,1-1.31,3.53,5.86,5.86,0,0,1-7.34,0,5.44,5.44,0,0,1,0-7.08,5.86,5.86,0,0,1,7.34,0,4.77,4.77,0,0,1,1.3,3.54ZM231,87.52a2.3,2.3,0,0,0,.43-.84,5.1,5.1,0,0,0,.14-1.36,5.29,5.29,0,0,0-.15-1.34,2.34,2.34,0,0,0-.41-.87,1.39,1.39,0,0,0-.62-.47,2.15,2.15,0,0,0-.78-.14,2.23,2.23,0,0,0-.75.11,1.49,1.49,0,0,0-.63.45,2.3,2.3,0,0,0-.43.87,5.14,5.14,0,0,0-.16,1.38,5.38,5.38,0,0,0,.14,1.29,2.28,2.28,0,0,0,.41.88,1.51,1.51,0,0,0,.62.46,2.13,2.13,0,0,0,.82.15,2.18,2.18,0,0,0,.76-.13,1.38,1.38,0,0,0,.61-.45Zm18.27-6a1.56,1.56,0,0,0-.19-.78,1.26,1.26,0,0,0-.64-.51,2.38,2.38,0,0,0-.74-.16c-.28,0-.61,0-1,0h-1.12v3.25h1a9.27,9.27,0,0,0,1.25-.07,1.81,1.81,0,0,0,.84-.33,1.64,1.64,0,0,0,.48-.56,1.85,1.85,0,0,0,.15-.81Zm4.85,8.36h-3.8L247,85.43h-1.43v4.42H242.5V77.8h5.21a11.7,11.7,0,0,1,1.84.12,3.92,3.92,0,0,1,1.44.52,3.16,3.16,0,0,1,1.08,1,3,3,0,0,1,.4,1.62,3.59,3.59,0,0,1-.62,2.18,4.69,4.69,0,0,1-1.77,1.4l4,5.17Zm10.15-4h-6.67a2.1,2.1,0,0,0,.81,1.64,3.63,3.63,0,0,0,2.21.57,5,5,0,0,0,1.79-.33,5.75,5.75,0,0,0,1.37-.71h.32v2.34a10.82,10.82,0,0,1-1.86.57,9.71,9.71,0,0,1-1.93.18,6.35,6.35,0,0,1-4.19-1.23,4.34,4.34,0,0,1-1.46-3.51A4.7,4.7,0,0,1,256,81.79a5.27,5.27,0,0,1,3.79-1.32,4.53,4.53,0,0,1,3.34,1.12,4.38,4.38,0,0,1,1.12,3.23v1Zm-2.9-1.71a2,2,0,0,0-.45-1.38,1.73,1.73,0,0,0-1.33-.46,2.13,2.13,0,0,0-1.38.44,1.86,1.86,0,0,0-.61,1.4Zm13.79,4.67a5.59,5.59,0,0,1-.36,2.15,3.19,3.19,0,0,1-1,1.37,4.15,4.15,0,0,1-1.58.73,9.12,9.12,0,0,1-2.09.22,14.9,14.9,0,0,1-1.87-.11,14.18,14.18,0,0,1-1.59-.27V90.61H267a9,9,0,0,0,1.3.39,6.29,6.29,0,0,0,1.38.17A4.77,4.77,0,0,0,271,91a1.77,1.77,0,0,0,.77-.42,1.57,1.57,0,0,0,.36-.67,3.66,3.66,0,0,0,.11-1v-.17a4.29,4.29,0,0,1-1.17.68,3.86,3.86,0,0,1-1.43.25,3.76,3.76,0,0,1-2.95-1.15,5.09,5.09,0,0,1-1-3.5,5.41,5.41,0,0,1,.31-1.94,4.31,4.31,0,0,1,.89-1.42,3.71,3.71,0,0,1,1.32-.88,4.25,4.25,0,0,1,1.6-.31,4.84,4.84,0,0,1,1.34.17,4.37,4.37,0,0,1,1.1.48l.1-.4h2.82v8ZM272.24,87V82.87a2.62,2.62,0,0,0-.62-.17,3.9,3.9,0,0,0-.65-.06,2.16,2.16,0,0,0-1.72.66,2.72,2.72,0,0,0-.57,1.84,2.66,2.66,0,0,0,.49,1.83,1.9,1.9,0,0,0,1.45.52,2.75,2.75,0,0,0,.86-.14,3.19,3.19,0,0,0,.77-.36Zm8.58,2.87H277.9V80.76h2.92v9.09Zm.08-10.39h-3.08V77.26h3.08v2.21Zm12,5.84a4.73,4.73,0,0,1-1.31,3.53,5.86,5.86,0,0,1-7.34,0,5.43,5.43,0,0,1,0-7.08,5.86,5.86,0,0,1,7.34,0,4.77,4.77,0,0,1,1.3,3.54Zm-3.59,2.21a2.3,2.3,0,0,0,.43-.84,5.12,5.12,0,0,0,.14-1.36A5.28,5.28,0,0,0,289.7,84a2.34,2.34,0,0,0-.41-.87,1.39,1.39,0,0,0-.62-.47,2.16,2.16,0,0,0-.78-.14,2.23,2.23,0,0,0-.75.11,1.49,1.49,0,0,0-.63.45,2.3,2.3,0,0,0-.43.87,5.13,5.13,0,0,0-.16,1.38,5.38,5.38,0,0,0,.14,1.29,2.28,2.28,0,0,0,.41.88,1.5,1.5,0,0,0,.62.46,2.13,2.13,0,0,0,.82.15,2.18,2.18,0,0,0,.76-.13,1.38,1.38,0,0,0,.61-.45Zm14.81,2.33h-2.93V85.34c0-.37,0-.73-.06-1.1a2.25,2.25,0,0,0-.2-.8,1,1,0,0,0-.47-.44,2.22,2.22,0,0,0-.87-.14,2.58,2.58,0,0,0-.8.13,4.3,4.3,0,0,0-.89.41v6.44H295V80.76h2.92v1a7.42,7.42,0,0,1,1.49-.93,3.83,3.83,0,0,1,1.59-.32,3.05,3.05,0,0,1,2.3.86,3.54,3.54,0,0,1,.83,2.56v5.92Zm8.18-2.37v-1.9l-1.28.13a6.38,6.38,0,0,0-1,.2,1.44,1.44,0,0,0-.67.4A1,1,0,0,0,309,87a1.77,1.77,0,0,0,0,.46.7.7,0,0,0,.24.34,1.16,1.16,0,0,0,.45.24,3.05,3.05,0,0,0,.81.08,2.46,2.46,0,0,0,.89-.18,2.79,2.79,0,0,0,.79-.47Zm0,1.41-.58.43a4.37,4.37,0,0,1-.66.4,4.06,4.06,0,0,1-.89.29,5,5,0,0,1-1,.09,3.1,3.1,0,0,1-2.17-.8,2.66,2.66,0,0,1-.87-2,2.76,2.76,0,0,1,.44-1.63,3,3,0,0,1,1.26-1,7.22,7.22,0,0,1,2-.52c.8-.1,1.63-.18,2.48-.23v0a1,1,0,0,0-.62-1,4.46,4.46,0,0,0-1.81-.29,5.19,5.19,0,0,0-1.54.25c-.55.17-.94.3-1.17.39h-.27V81c.31-.08.81-.18,1.5-.29a13.18,13.18,0,0,1,2.08-.17,6.45,6.45,0,0,1,3.59.77,2.71,2.71,0,0,1,1.11,2.4v6.18h-2.89v-1Zm8.49,1h-2.92V77.26h2.92v12.6Zm17.26,0H335.1v-.95a6.34,6.34,0,0,1-1.41.91,3.67,3.67,0,0,1-1.51.29,3.19,3.19,0,0,1-2.66-1.28,5.48,5.48,0,0,1-1-3.45,5.83,5.83,0,0,1,.33-2.05,4.67,4.67,0,0,1,.92-1.53,3.82,3.82,0,0,1,1.33-.94,4,4,0,0,1,1.57-.34,4.31,4.31,0,0,1,1.34.17,8.72,8.72,0,0,1,1.07.44V77.26H338v12.6Zm-2.91-2.51V82.88a2.87,2.87,0,0,0-.65-.19,3.7,3.7,0,0,0-.62-.05,2.07,2.07,0,0,0-1.72.72,3.09,3.09,0,0,0-.58,2,3.21,3.21,0,0,0,.46,1.94,1.75,1.75,0,0,0,1.48.6,2.65,2.65,0,0,0,.84-.15,3,3,0,0,0,.79-.39Zm14.62-1.5h-6.67a2.1,2.1,0,0,0,.82,1.64,3.63,3.63,0,0,0,2.21.57,5,5,0,0,0,1.79-.33,5.75,5.75,0,0,0,1.37-.71h.32v2.34a10.82,10.82,0,0,1-1.86.57,9.7,9.7,0,0,1-1.93.18,6.35,6.35,0,0,1-4.19-1.23,4.34,4.34,0,0,1-1.46-3.51,4.7,4.7,0,0,1,1.38-3.57,5.27,5.27,0,0,1,3.79-1.32,4.53,4.53,0,0,1,3.34,1.12,4.37,4.37,0,0,1,1.12,3.23v1Zm-2.9-1.71a2,2,0,0,0-.45-1.38A1.73,1.73,0,0,0,345,82.3a2.13,2.13,0,0,0-1.38.44,1.86,1.86,0,0,0-.61,1.4Zm19.5,5.71h-8.72V77.8h8.72v2.33H360.7v2.08h5.22v2.33H360.7v3h5.63v2.33Zm11.58,0H375V85.34c0-.37,0-.73-.06-1.1a2.26,2.26,0,0,0-.2-.8,1,1,0,0,0-.47-.44,2.22,2.22,0,0,0-.87-.14,2.58,2.58,0,0,0-.8.13,4.3,4.3,0,0,0-.89.41v6.44h-2.92V80.76h2.92v1a7.44,7.44,0,0,1,1.49-.93,3.83,3.83,0,0,1,1.59-.32,3.05,3.05,0,0,1,2.3.86,3.54,3.54,0,0,1,.83,2.56v5.92Zm11.52-1a5.59,5.59,0,0,1-.37,2.15,3.18,3.18,0,0,1-1,1.37,4.15,4.15,0,0,1-1.58.73,9.12,9.12,0,0,1-2.09.22,14.9,14.9,0,0,1-1.87-.11,14.19,14.19,0,0,1-1.59-.27V90.61h.36a9,9,0,0,0,1.3.39,6.29,6.29,0,0,0,1.38.17,4.77,4.77,0,0,0,1.32-.15,1.77,1.77,0,0,0,.77-.42,1.57,1.57,0,0,0,.36-.67,3.66,3.66,0,0,0,.11-1v-.17a4.28,4.28,0,0,1-1.17.68,3.86,3.86,0,0,1-1.43.25A3.76,3.76,0,0,1,381,88.57a5.09,5.09,0,0,1-1-3.5,5.41,5.41,0,0,1,.31-1.94,4.32,4.32,0,0,1,.89-1.42,3.71,3.71,0,0,1,1.32-.88,4.25,4.25,0,0,1,1.6-.31,4.83,4.83,0,0,1,1.34.17,4.36,4.36,0,0,1,1.1.48l.1-.4h2.82v8ZM386.51,87V82.87a2.62,2.62,0,0,0-.62-.17,3.9,3.9,0,0,0-.66-.06,2.16,2.16,0,0,0-1.72.66,2.72,2.72,0,0,0-.57,1.84,2.66,2.66,0,0,0,.49,1.83,1.9,1.9,0,0,0,1.45.52,2.75,2.75,0,0,0,.86-.14,3.2,3.2,0,0,0,.77-.36Zm14.62-1.14h-6.67a2.1,2.1,0,0,0,.82,1.64,3.63,3.63,0,0,0,2.2.57,5,5,0,0,0,1.79-.33,5.76,5.76,0,0,0,1.37-.71H401v2.34a10.84,10.84,0,0,1-1.86.57,9.71,9.71,0,0,1-1.93.18A6.35,6.35,0,0,1,393,88.87a4.34,4.34,0,0,1-1.46-3.51,4.7,4.7,0,0,1,1.38-3.57,5.27,5.27,0,0,1,3.79-1.32A4.52,4.52,0,0,1,400,81.6a4.38,4.38,0,0,1,1.12,3.23v1Zm-2.9-1.71a2,2,0,0,0-.45-1.38,1.73,1.73,0,0,0-1.33-.46,2.13,2.13,0,0,0-1.38.44,1.87,1.87,0,0,0-.61,1.4Zm14.09,5.71h-2.93V85.34c0-.37,0-.73-.06-1.1a2.26,2.26,0,0,0-.2-.8,1,1,0,0,0-.47-.44,2.22,2.22,0,0,0-.87-.14,2.57,2.57,0,0,0-.8.13,4.3,4.3,0,0,0-.89.41v6.44h-2.92V80.76h2.92v1a7.44,7.44,0,0,1,1.49-.93,3.83,3.83,0,0,1,1.59-.32,3.05,3.05,0,0,1,2.3.86,3.54,3.54,0,0,1,.83,2.56v5.92Zm11.81,0H421.2V85.34c0-.37,0-.73-.06-1.1a2.26,2.26,0,0,0-.2-.8,1,1,0,0,0-.47-.44,2.22,2.22,0,0,0-.87-.14,2.57,2.57,0,0,0-.8.13,4.3,4.3,0,0,0-.89.41v6.44H415V77.26h2.92v4.51a7.43,7.43,0,0,1,1.49-.93,3.83,3.83,0,0,1,1.59-.32,3.05,3.05,0,0,1,2.3.86,3.54,3.54,0,0,1,.83,2.56v5.92Zm8.18-2.37v-1.9l-1.28.13a6.39,6.39,0,0,0-1,.2,1.44,1.44,0,0,0-.67.4,1,1,0,0,0-.23.69,1.76,1.76,0,0,0,0,.46.69.69,0,0,0,.24.34,1.15,1.15,0,0,0,.45.24,3.05,3.05,0,0,0,.81.08,2.46,2.46,0,0,0,.89-.18,2.79,2.79,0,0,0,.79-.47Zm0,1.41-.58.43a4.38,4.38,0,0,1-.66.4,4.06,4.06,0,0,1-.89.29,5,5,0,0,1-1,.09,3.1,3.1,0,0,1-2.17-.8,2.66,2.66,0,0,1-.87-2,2.76,2.76,0,0,1,.44-1.63,3,3,0,0,1,1.26-1,7.22,7.22,0,0,1,2-.52c.8-.1,1.63-.18,2.48-.23v0a1,1,0,0,0-.62-1,4.46,4.46,0,0,0-1.81-.29,5.19,5.19,0,0,0-1.54.25c-.55.17-.94.3-1.17.39h-.27V81c.31-.08.81-.18,1.5-.29a13.19,13.19,0,0,1,2.08-.17,6.45,6.45,0,0,1,3.59.77,2.71,2.71,0,0,1,1.11,2.4v6.18h-2.89v-1Zm12.16-5.35h-.26a2.45,2.45,0,0,0-.6-.1l-.69,0a6.81,6.81,0,0,0-1.1.08,6.37,6.37,0,0,0-1,.28v6.09h-2.92V80.76h2.92V82.1a6.11,6.11,0,0,1,1.67-1.1,3.74,3.74,0,0,1,1.31-.27h.35l.34,0v2.78ZM449,89.85h-2.92V80.76H449v9.09Zm.08-10.39H446V77.26h3.08v2.21Zm8.18,8v-1.9l-1.28.13a6.4,6.4,0,0,0-1,.2,1.44,1.44,0,0,0-.67.4,1,1,0,0,0-.23.69,1.78,1.78,0,0,0,0,.46.7.7,0,0,0,.24.34,1.15,1.15,0,0,0,.45.24,3.05,3.05,0,0,0,.81.08,2.46,2.46,0,0,0,.89-.18,2.8,2.8,0,0,0,.79-.47Zm0,1.41-.58.43a4.4,4.4,0,0,1-.66.4,4.07,4.07,0,0,1-.89.29,5,5,0,0,1-1,.09,3.1,3.1,0,0,1-2.17-.8,2.66,2.66,0,0,1-.87-2,2.76,2.76,0,0,1,.45-1.63,3,3,0,0,1,1.26-1,7.22,7.22,0,0,1,2-.52c.8-.1,1.63-.18,2.48-.23v0a1,1,0,0,0-.62-1,4.46,4.46,0,0,0-1.81-.29,5.19,5.19,0,0,0-1.54.25c-.55.17-.94.3-1.17.39h-.27V81c.31-.08.81-.18,1.5-.29a13.18,13.18,0,0,1,2.08-.17,6.45,6.45,0,0,1,3.59.77,2.71,2.71,0,0,1,1.11,2.4v6.18H457.3v-1ZM214,104h-6.67a2.1,2.1,0,0,0,.81,1.64,3.63,3.63,0,0,0,2.21.57,5,5,0,0,0,1.79-.33,5.74,5.74,0,0,0,1.37-.71h.32v2.34a10.8,10.8,0,0,1-1.86.57,9.68,9.68,0,0,1-1.93.18,6.35,6.35,0,0,1-4.19-1.23,4.34,4.34,0,0,1-1.46-3.51,4.7,4.7,0,0,1,1.38-3.57,5.27,5.27,0,0,1,3.79-1.32,4.53,4.53,0,0,1,3.34,1.12A4.38,4.38,0,0,1,214,103v1Zm-2.9-1.71a2,2,0,0,0-.45-1.38,1.73,1.73,0,0,0-1.33-.46,2.13,2.13,0,0,0-1.38.44,1.86,1.86,0,0,0-.61,1.4ZM233,108h-3.21l-.83-2.44h-4.47l-.83,2.44h-3.13L225,95.94h3.58L233,108Zm-4.8-4.65L226.76,99l-1.48,4.32Zm15.21,3.6a5.6,5.6,0,0,1-.37,2.15,3.19,3.19,0,0,1-1,1.37,4.15,4.15,0,0,1-1.58.73,9.14,9.14,0,0,1-2.09.22,14.89,14.89,0,0,1-1.87-.11,14.24,14.24,0,0,1-1.59-.27v-2.28h.36a8.94,8.94,0,0,0,1.3.39,6.27,6.27,0,0,0,1.38.17,4.76,4.76,0,0,0,1.32-.15,1.77,1.77,0,0,0,.77-.42,1.58,1.58,0,0,0,.36-.67,3.68,3.68,0,0,0,.11-1v-.17a4.27,4.27,0,0,1-1.17.68,3.86,3.86,0,0,1-1.43.25,3.76,3.76,0,0,1-2.95-1.15,5.09,5.09,0,0,1-1-3.5,5.41,5.41,0,0,1,.32-1.94,4.31,4.31,0,0,1,.89-1.42,3.7,3.7,0,0,1,1.32-.88,4.25,4.25,0,0,1,1.6-.31,4.83,4.83,0,0,1,1.34.17,4.37,4.37,0,0,1,1.1.48l.11-.4h2.82v8Zm-2.91-1.82V101a2.64,2.64,0,0,0-.62-.17,4,4,0,0,0-.65-.06,2.16,2.16,0,0,0-1.72.66,2.72,2.72,0,0,0-.57,1.84,2.66,2.66,0,0,0,.49,1.83,1.91,1.91,0,0,0,1.45.52,2.74,2.74,0,0,0,.86-.14,3.2,3.2,0,0,0,.77-.36Z"/><path class="cls-3" d="M252.79,101.68h-.26a2.45,2.45,0,0,0-.6-.1l-.69,0a6.82,6.82,0,0,0-1.1.08,6.38,6.38,0,0,0-1,.28V108H246.2V98.9h2.92v1.33a6.11,6.11,0,0,1,1.67-1.1,3.74,3.74,0,0,1,1.31-.27h.35l.34,0v2.78Zm10.94,1.77a4.73,4.73,0,0,1-1.31,3.53,5.86,5.86,0,0,1-7.34,0,5.43,5.43,0,0,1,0-7.08,5.86,5.86,0,0,1,7.34,0,4.77,4.77,0,0,1,1.3,3.54Zm-3.59,2.21a2.31,2.31,0,0,0,.43-.84,5.1,5.1,0,0,0,.14-1.36,5.28,5.28,0,0,0-.15-1.34,2.35,2.35,0,0,0-.41-.87,1.4,1.4,0,0,0-.62-.47,2.16,2.16,0,0,0-.78-.14,2.23,2.23,0,0,0-.75.11,1.48,1.48,0,0,0-.63.45,2.3,2.3,0,0,0-.43.87,5.12,5.12,0,0,0-.16,1.38,5.38,5.38,0,0,0,.14,1.29,2.28,2.28,0,0,0,.41.88,1.5,1.5,0,0,0,.62.46,2.13,2.13,0,0,0,.82.15,2.18,2.18,0,0,0,.76-.13,1.38,1.38,0,0,0,.61-.45ZM275,108H272v-4.51c0-.37,0-.73-.06-1.1a2.26,2.26,0,0,0-.2-.8,1,1,0,0,0-.47-.44,2.22,2.22,0,0,0-.87-.14,2.58,2.58,0,0,0-.8.13,4.33,4.33,0,0,0-.89.41V108h-2.92V98.9h2.92v1a7.44,7.44,0,0,1,1.49-.93,3.83,3.83,0,0,1,1.59-.32,3.05,3.05,0,0,1,2.3.86,3.54,3.54,0,0,1,.83,2.56V108Zm12-4.54a4.73,4.73,0,0,1-1.31,3.53,5.86,5.86,0,0,1-7.34,0,5.44,5.44,0,0,1,0-7.08,5.86,5.86,0,0,1,7.34,0,4.77,4.77,0,0,1,1.3,3.54Zm-3.59,2.21a2.31,2.31,0,0,0,.43-.84,5.1,5.1,0,0,0,.14-1.36,5.27,5.27,0,0,0-.15-1.34,2.35,2.35,0,0,0-.41-.87,1.4,1.4,0,0,0-.62-.47,2.16,2.16,0,0,0-.78-.14,2.23,2.23,0,0,0-.75.11,1.48,1.48,0,0,0-.63.45,2.3,2.3,0,0,0-.43.87,5.12,5.12,0,0,0-.16,1.38,5.37,5.37,0,0,0,.14,1.29,2.28,2.28,0,0,0,.41.88,1.5,1.5,0,0,0,.62.46,2.13,2.13,0,0,0,.82.15,2.18,2.18,0,0,0,.76-.13,1.38,1.38,0,0,0,.61-.45Zm14.57-4.11V108H295v-4.54c0-.44,0-.82,0-1.13a2,2,0,0,0-.18-.76.88.88,0,0,0-.44-.43,2.07,2.07,0,0,0-.83-.13,2.11,2.11,0,0,0-.83.17,6.15,6.15,0,0,0-.73.37V108H289V98.9h2.92v1a8,8,0,0,1,1.44-.92,3.46,3.46,0,0,1,1.52-.33,3.09,3.09,0,0,1,1.59.4,2.76,2.76,0,0,1,1.08,1.18,9.22,9.22,0,0,1,1.7-1.16,3.57,3.57,0,0,1,1.62-.42,2.81,2.81,0,0,1,2.24.88,3.77,3.77,0,0,1,.77,2.54V108H301v-4.54c0-.45,0-.82,0-1.13a2,2,0,0,0-.17-.75.85.85,0,0,0-.44-.43,2.13,2.13,0,0,0-.84-.13,2.11,2.11,0,0,0-.71.12,5.51,5.51,0,0,0-.85.42ZM309.48,108h-2.92V98.9h2.92V108Zm.08-10.39h-3.08V95.39h3.08V97.6Zm8.18,8v-1.9l-1.28.13a6.38,6.38,0,0,0-1,.2,1.43,1.43,0,0,0-.67.4,1,1,0,0,0-.23.69,1.77,1.77,0,0,0,0,.46.69.69,0,0,0,.24.34,1.15,1.15,0,0,0,.45.24,3,3,0,0,0,.81.08,2.46,2.46,0,0,0,.89-.18,2.77,2.77,0,0,0,.79-.47Zm0,1.41-.58.43a4.32,4.32,0,0,1-.66.4,4,4,0,0,1-.89.29,5,5,0,0,1-1,.09,3.1,3.1,0,0,1-2.17-.8,2.66,2.66,0,0,1-.87-2,2.76,2.76,0,0,1,.44-1.63,3,3,0,0,1,1.26-1,7.22,7.22,0,0,1,2-.52c.8-.1,1.63-.18,2.48-.23v0a1,1,0,0,0-.62-1,4.45,4.45,0,0,0-1.81-.29,5.19,5.19,0,0,0-1.54.25c-.55.17-.94.3-1.17.39h-.27V99.09c.31-.08.81-.18,1.5-.29a13.18,13.18,0,0,1,2.08-.17,6.45,6.45,0,0,1,3.59.77,2.71,2.71,0,0,1,1.11,2.4V108h-2.89v-1Zm20.08,1H334.9V107a6.32,6.32,0,0,1-1.41.91,3.66,3.66,0,0,1-1.51.29,3.19,3.19,0,0,1-2.66-1.28,5.47,5.47,0,0,1-1-3.45,5.83,5.83,0,0,1,.33-2.05,4.67,4.67,0,0,1,.92-1.53,3.8,3.8,0,0,1,1.33-.94,4,4,0,0,1,1.57-.34,4.31,4.31,0,0,1,1.34.17,8.77,8.77,0,0,1,1.07.44V95.39h2.91V108Zm-2.91-2.51V101a2.89,2.89,0,0,0-.65-.19,3.68,3.68,0,0,0-.62-.05,2.07,2.07,0,0,0-1.72.72,3.09,3.09,0,0,0-.58,2,3.21,3.21,0,0,0,.46,1.94,1.75,1.75,0,0,0,1.48.6,2.65,2.65,0,0,0,.84-.15,3,3,0,0,0,.79-.39Zm11.17.14v-1.9l-1.28.13a6.38,6.38,0,0,0-1,.2,1.43,1.43,0,0,0-.67.4,1,1,0,0,0-.23.69,1.78,1.78,0,0,0,0,.46.69.69,0,0,0,.24.34,1.15,1.15,0,0,0,.45.24,3,3,0,0,0,.81.08,2.46,2.46,0,0,0,.89-.18,2.78,2.78,0,0,0,.79-.47Zm0,1.41-.58.43a4.35,4.35,0,0,1-.66.4,4.06,4.06,0,0,1-.89.29,5,5,0,0,1-1,.09,3.1,3.1,0,0,1-2.17-.8,2.66,2.66,0,0,1-.87-2,2.76,2.76,0,0,1,.45-1.63,3,3,0,0,1,1.26-1,7.22,7.22,0,0,1,2-.52c.8-.1,1.63-.18,2.48-.23v0a1,1,0,0,0-.62-1,4.46,4.46,0,0,0-1.81-.29,5.19,5.19,0,0,0-1.54.25c-.55.17-.94.3-1.17.39h-.27V99.09c.31-.08.81-.18,1.5-.29a13.17,13.17,0,0,1,2.08-.17,6.45,6.45,0,0,1,3.59.77,2.71,2.71,0,0,1,1.11,2.4V108h-2.89v-1Zm21.72-2.73a3.37,3.37,0,0,1-.35,1.56,3.23,3.23,0,0,1-1,1.14,4.58,4.58,0,0,1-1.57.76,8.6,8.6,0,0,1-2.17.23h-5.26V95.94h4.68a16.36,16.36,0,0,1,2.13.1,4.34,4.34,0,0,1,1.34.43,2.37,2.37,0,0,1,1,.93,2.82,2.82,0,0,1-.12,2.88,3,3,0,0,1-1.3,1v.06a3.4,3.4,0,0,1,1.88,1,2.72,2.72,0,0,1,.69,1.94Zm-4-5a1.31,1.31,0,0,0-.15-.6.93.93,0,0,0-.53-.45,2.6,2.6,0,0,0-.85-.14h-1.71v2.55h.49l1.25,0a2.29,2.29,0,0,0,.82-.16,1,1,0,0,0,.55-.48,1.71,1.71,0,0,0,.13-.69Zm.76,4.91a1.5,1.5,0,0,0-.22-.88,1.34,1.34,0,0,0-.76-.47,4,4,0,0,0-1-.11h-2v3h2.11a2.73,2.73,0,0,0,1-.21,1.27,1.27,0,0,0,.67-.54,1.59,1.59,0,0,0,.18-.77Zm10.88,1.37v-1.9l-1.28.13a6.36,6.36,0,0,0-1,.2,1.43,1.43,0,0,0-.67.4,1,1,0,0,0-.23.69,1.78,1.78,0,0,0,0,.46.7.7,0,0,0,.24.34,1.15,1.15,0,0,0,.45.24,3,3,0,0,0,.81.08,2.46,2.46,0,0,0,.89-.18,2.78,2.78,0,0,0,.79-.47Zm0,1.41-.58.43a4.3,4.3,0,0,1-.66.4,4.05,4.05,0,0,1-.89.29,5,5,0,0,1-1,.09,3.1,3.1,0,0,1-2.17-.8,2.66,2.66,0,0,1-.87-2,2.76,2.76,0,0,1,.45-1.63,3,3,0,0,1,1.26-1,7.22,7.22,0,0,1,2-.52c.8-.1,1.63-.18,2.48-.23v0a1,1,0,0,0-.62-1,4.45,4.45,0,0,0-1.81-.29,5.19,5.19,0,0,0-1.54.25c-.55.17-.94.3-1.17.39h-.27V99.09c.31-.08.81-.18,1.5-.29a13.19,13.19,0,0,1,2.08-.17,6.45,6.45,0,0,1,3.59.77,2.71,2.71,0,0,1,1.11,2.4V108h-2.89v-1Zm14.7,1h-2.93v-4.51c0-.37,0-.73-.06-1.1a2.26,2.26,0,0,0-.2-.8,1,1,0,0,0-.47-.44,2.22,2.22,0,0,0-.87-.14,2.58,2.58,0,0,0-.8.13,4.34,4.34,0,0,0-.89.41V108H381V95.39h2.92V99.9a7.42,7.42,0,0,1,1.49-.93,3.83,3.83,0,0,1,1.59-.32,3.05,3.05,0,0,1,2.3.86,3.54,3.54,0,0,1,.83,2.56V108Zm5.59,0h-2.92V98.9h2.92V108Zm.08-10.39h-3.08V95.39h3.08V97.6Zm8.18,8v-1.9l-1.28.13a6.38,6.38,0,0,0-1,.2,1.43,1.43,0,0,0-.67.4,1,1,0,0,0-.23.69,1.77,1.77,0,0,0,0,.46.69.69,0,0,0,.24.34,1.15,1.15,0,0,0,.45.24,3,3,0,0,0,.81.08,2.46,2.46,0,0,0,.89-.18,2.78,2.78,0,0,0,.79-.47Zm0,1.41-.58.43a4.34,4.34,0,0,1-.66.4,4.06,4.06,0,0,1-.89.29,5,5,0,0,1-1,.09,3.1,3.1,0,0,1-2.17-.8,2.66,2.66,0,0,1-.87-2,2.76,2.76,0,0,1,.44-1.63,3,3,0,0,1,1.26-1,7.22,7.22,0,0,1,2-.52c.8-.1,1.63-.18,2.48-.23v0a1,1,0,0,0-.62-1,4.45,4.45,0,0,0-1.81-.29,5.19,5.19,0,0,0-1.54.25c-.55.17-.94.3-1.17.39h-.27V99.09c.31-.08.81-.18,1.5-.29a13.18,13.18,0,0,1,2.08-.17,6.45,6.45,0,0,1,3.59.77,2.71,2.71,0,0,1,1.11,2.4V108H404v-1Z"/></svg>